<svg xmlns="http://www.w3.org/2000/svg" xmlns:svg="http://www.w3.org/2000/svg" id="svg8" width="140" height="36" version="1.1" viewBox="0 0 37.042 9.525"><metadata id="metadata5"/><g id="layer1" transform="translate(-83.476044,-100.2256)"><g id="g254" transform="translate(-9.6107748,0.03422409)"><text style="font-style:normal;font-variant:normal;font-weight:400;font-stretch:normal;font-size:5.64444447px;line-height:125%;font-family:'Bauhaus 93';-inkscape-font-specification:'Bauhaus 93, Normal';font-variant-ligatures:normal;font-variant-caps:normal;font-variant-numeric:normal;font-feature-settings:normal;text-align:start;letter-spacing:0;word-spacing:0;writing-mode:lr-tb;text-anchor:start;fill:#000;fill-opacity:1;stroke:none;stroke-width:.26458332px;stroke-linecap:butt;stroke-linejoin:miter;stroke-opacity:1" id="text64" x="94.815" y="107.152" xml:space="preserve"><tspan id="tspan62" x="94.815" y="107.152" style="font-style:normal;font-variant:normal;font-weight:400;font-stretch:normal;font-size:5.64444447px;font-family:'Bauhaus 93';-inkscape-font-specification:'Bauhaus 93, Normal';font-variant-ligatures:normal;font-variant-caps:normal;font-variant-numeric:normal;font-feature-settings:normal;text-align:start;writing-mode:lr-tb;text-anchor:start;stroke-width:.26458332px">C&apos;s Page</tspan></text><g id="g172" style="opacity:1;vector-effect:none;fill:red;fill-opacity:1;stroke:none;stroke-width:1.33333337;stroke-linejoin:round;stroke-miterlimit:4;stroke-dasharray:none;stroke-dashoffset:0;paint-order:fill markers stroke"><path id="path174" d="m 93.303424,108.1442 v 1.07723 l 3.058571,-0.53275 v -0.94166 z" points="93.303 109.221 96.362 108.689 96.362 107.747 93.303 108.144" style="fill:#353564;fill-rule:evenodd;stroke:none;stroke-width:1px;stroke-linecap:butt;stroke-linejoin:round;stroke-opacity:1"/><path id="path182" d="m 93.303424,109.22143 1.228423,0.52917 3.216377,-0.66382 -1.386229,-0.3981 z" points="94.532 109.751 97.748 109.087 96.362 108.689 93.303 109.221" style="fill:#afafde;fill-rule:evenodd;stroke:none;stroke-width:1px;stroke-linecap:butt;stroke-linejoin:round;stroke-opacity:1"/><path id="path184" d="m 96.361995,107.74702 1.386229,0.29679 v 1.04297 l -1.386229,-0.3981 z" points="97.748 108.044 97.748 109.087 96.362 108.689 96.362 107.747" style="fill:#e9e9ff;fill-rule:evenodd;stroke:none;stroke-width:1px;stroke-linecap:butt;stroke-linejoin:round;stroke-opacity:1"/><path id="path176" d="m 93.303424,108.1442 1.228423,0.39451 3.216377,-0.4949 -1.386229,-0.29679 z" points="94.532 108.539 97.748 108.044 96.362 107.747 93.303 108.144" style="fill:#4d4d9f;fill-rule:evenodd;stroke:none;stroke-width:1px;stroke-linecap:butt;stroke-linejoin:round;stroke-opacity:1"/><path id="path180" d="m 94.531847,108.53871 v 1.21189 l 3.216377,-0.66382 v -1.04297 z" points="94.532 109.751 97.748 109.087 97.748 108.044 94.532 108.539" style="fill:#d7d7ff;fill-rule:evenodd;stroke:none;stroke-width:1px;stroke-linecap:butt;stroke-linejoin:round;stroke-opacity:1"/><path id="path178" d="m 93.303424,108.1442 1.228423,0.39451 v 1.21189 l -1.228423,-0.52917 z" points="94.532 108.539 94.532 109.751 93.303 109.221 93.303 108.144" style="fill:#8686bf;fill-rule:evenodd;stroke:none;stroke-width:1px;stroke-linecap:butt;stroke-linejoin:round;stroke-opacity:1"/></g><g id="g186" style="opacity:1;vector-effect:none;fill:red;fill-opacity:1;stroke:none;stroke-width:1.33333337;stroke-linejoin:round;stroke-miterlimit:4;stroke-dasharray:none;stroke-dashoffset:0;paint-order:fill markers stroke"><path id="path188" d="m 111.30454,101.29338 v 1.4331 l 1.82531,0.65498 v -1.01807 z" points="111.305 102.726 113.13 103.381 113.13 102.363 111.305 101.293" style="fill:#353564;fill-rule:evenodd;stroke:none;stroke-width:1px;stroke-linecap:butt;stroke-linejoin:round;stroke-opacity:1"/><path id="path198" d="m 113.12985,102.36339 1.43741,-0.12722 v 1.06741 l -1.43741,0.0779 z" points="114.567 102.236 114.567 103.304 113.13 103.381 113.13 102.363" style="fill:#e9e9ff;fill-rule:evenodd;stroke:none;stroke-width:1px;stroke-linecap:butt;stroke-linejoin:round;stroke-opacity:1"/><path id="path190" d="m 111.30454,101.29338 1.93713,-0.25719 1.32559,1.19998 -1.43741,0.12722 z" points="113.242 101.036 114.567 102.236 113.13 102.363 111.305 101.293" style="fill:#4d4d9f;fill-rule:evenodd;stroke:none;stroke-width:1px;stroke-linecap:butt;stroke-linejoin:round;stroke-opacity:1"/><path id="path196" d="m 111.30454,102.72648 1.93713,-0.15743 1.32559,0.73453 -1.43741,0.0779 z" points="113.242 102.569 114.567 103.304 113.13 103.381 111.305 102.726" style="fill:#afafde;fill-rule:evenodd;stroke:none;stroke-width:1px;stroke-linecap:butt;stroke-linejoin:round;stroke-opacity:1"/><path id="path194" d="m 113.24167,101.03619 v 1.53286 l 1.32559,0.73453 v -1.06741 z" points="113.242 102.569 114.567 103.304 114.567 102.236 113.242 101.036" style="fill:#d7d7ff;fill-rule:evenodd;stroke:none;stroke-width:1px;stroke-linecap:butt;stroke-linejoin:round;stroke-opacity:1"/><path id="path192" d="m 111.30454,101.29338 1.93713,-0.25719 v 1.53286 l -1.93713,0.15743 z" points="113.242 101.036 113.242 102.569 111.305 102.726 111.305 101.293" style="fill:#8686bf;fill-rule:evenodd;stroke:none;stroke-width:1px;stroke-linecap:butt;stroke-linejoin:round;stroke-opacity:1"/></g><g id="g214" style="opacity:1;vector-effect:none;fill:red;fill-opacity:1;stroke:none;stroke-width:1.33333337;stroke-linejoin:round;stroke-miterlimit:4;stroke-dasharray:none;stroke-dashoffset:0;paint-order:fill markers stroke"><path id="path216" d="m 94.437353,101.48237 v 0.9838 l 3.205764,0.34894 v -0.84769 z" points="94.437 102.466 97.643 102.815 97.643 101.967 94.437 101.482" style="fill:#353564;fill-rule:evenodd;stroke:none;stroke-width:1px;stroke-linecap:butt;stroke-linejoin:round;stroke-opacity:1"/><path id="path226" d="m 97.643117,101.96742 1.753395,-0.37386 v 0.9526 l -1.753395,0.26895 z" points="99.397 101.594 99.397 102.546 97.643 102.815 97.643 101.967" style="fill:#e9e9ff;fill-rule:evenodd;stroke:none;stroke-width:1px;stroke-linecap:butt;stroke-linejoin:round;stroke-opacity:1"/><path id="path218" d="m 94.437353,101.48237 1.606399,-0.51377 3.35276,0.62496 -1.753395,0.37386 z" points="96.044 100.969 99.397 101.594 97.643 101.967 94.437 101.482" style="fill:#4d4d9f;fill-rule:evenodd;stroke:none;stroke-width:1px;stroke-linecap:butt;stroke-linejoin:round;stroke-opacity:1"/><path id="path224" d="m 94.437353,102.46617 1.606399,-0.36959 3.35276,0.44958 -1.753395,0.26895 z" points="96.044 102.097 99.397 102.546 97.643 102.815 94.437 102.466" style="fill:#afafde;fill-rule:evenodd;stroke:none;stroke-width:1px;stroke-linecap:butt;stroke-linejoin:round;stroke-opacity:1"/><path id="path222" d="m 96.043752,100.9686 v 1.12798 l 3.35276,0.44958 v -0.9526 z" points="96.044 102.097 99.397 102.546 99.397 101.594 96.044 100.969" style="fill:#d7d7ff;fill-rule:evenodd;stroke:none;stroke-width:1px;stroke-linecap:butt;stroke-linejoin:round;stroke-opacity:1"/><path id="path220" d="m 94.437353,101.48237 1.606399,-0.51377 v 1.12798 l -1.606399,0.36959 z" points="96.044 100.969 96.044 102.097 94.437 102.466 94.437 101.482" style="fill:#8686bf;fill-rule:evenodd;stroke:none;stroke-width:1px;stroke-linecap:butt;stroke-linejoin:round;stroke-opacity:1"/></g></g><g id="g9465" transform="matrix(2.1045652,0,0,2.1045652,-4.7607716,-74.827218)"><ellipse style="opacity:1;vector-effect:none;fill:#fff;fill-opacity:1;stroke:#000;stroke-width:.11960974;stroke-linejoin:round;stroke-miterlimit:4;stroke-dasharray:none;stroke-dashoffset:0;paint-order:fill markers stroke" id="path373-7" cx="58.432" cy="85.656" rx=".912" ry="1.013"/><ellipse style="opacity:1;vector-effect:none;fill:#000;fill-opacity:1;stroke:none;stroke-width:.16282935;stroke-linejoin:round;stroke-miterlimit:4;stroke-dasharray:none;stroke-dashoffset:0;paint-order:fill markers stroke" id="path4883-4" cx="58.227" cy="85.814" rx=".426" ry=".415"/><ellipse style="opacity:1;vector-effect:none;fill:#fff;fill-opacity:1;stroke:#000;stroke-width:.11960974;stroke-linejoin:round;stroke-miterlimit:4;stroke-dasharray:none;stroke-dashoffset:0;paint-order:fill markers stroke" id="path373-6-8" cx="-55.189" cy="85.611" rx=".912" ry="1.013" transform="scale(-1,1)"/><ellipse style="opacity:1;vector-effect:none;fill:#000;fill-opacity:1;stroke:none;stroke-width:.16282935;stroke-linejoin:round;stroke-miterlimit:4;stroke-dasharray:none;stroke-dashoffset:0;paint-order:fill markers stroke" id="path4883-5-4" cx="-55.394" cy="85.769" rx=".426" ry=".415" transform="scale(-1,1)"/></g></g></svg>