<svg xmlns="http://www.w3.org/2000/svg" width="345.6" height="345.6" fill-rule="evenodd" clip-rule="evenodd" image-rendering="optimizeQuality" shape-rendering="geometricPrecision" text-rendering="geometricPrecision" version="1.1" viewBox="0 0 9144 9144"><defs><style type="text/css">.fil1{fill:#fff;fill-rule:nonzero}.fil0{fill:url(#a)}</style><linearGradient id="a" x1="10043" x2="-898.9" y1="6303" y2="2841" gradientUnits="userSpaceOnUse"><stop offset="0" stop-color="#48CFAE"/><stop offset="1" stop-color="#4FC0E8"/></linearGradient></defs><polygon points="0 0 9144 0 9144 9144 0 9144" class="fil0"/><path d="m5274 3284h819v-314h-819v314zm343 2363h134l252-353h-639l253 353zm162-2171v1627h314v-1627h-314zm-191 1627v-1627h-314v1627h314zm-2431-1769c-53 0-95-43-95-95 0-53 42-96 95-96h1926v-268c0-53 42-96 95-96h1011c53 0 95 43 95 96v2324c0 23-8 44-22 61l-496 695c-17 28-47 46-82 46h-2527c-53 0-95-43-95-96 0-52 42-95 95-95h2341l-324-452h-2017c-53 0-95-43-95-96s42-96 95-96h1926v-544h-1926c-53 0-95-43-95-96s42-96 95-96h1926v-452h-1926c-53 0-95-43-95-96s42-96 95-96h1926v-452h-1926zm-606-879h4042c53 0 96 43 96 96v4042c0 53-43 96-96 96h-4042c-53 0-96-43-96-96v-4042c0-53 43-96 96-96zm3946 192h-3850v3850h3850v-3850z" class="fil1"/></svg>